%TF.GenerationSoftware,KiCad,Pcbnew,8.0.6*%
%TF.CreationDate,2024-11-18T16:26:54-05:00*%
%TF.ProjectId,lora_breakout,6c6f7261-5f62-4726-9561-6b6f75742e6b,rev?*%
%TF.SameCoordinates,Original*%
%TF.FileFunction,Legend,Top*%
%TF.FilePolarity,Positive*%
%FSLAX46Y46*%
G04 Gerber Fmt 4.6, Leading zero omitted, Abs format (unit mm)*
G04 Created by KiCad (PCBNEW 8.0.6) date 2024-11-18 16:26:54*
%MOMM*%
%LPD*%
G01*
G04 APERTURE LIST*
%ADD10C,0.150000*%
%ADD11C,0.120000*%
G04 APERTURE END LIST*
D10*
X150796666Y-90684819D02*
X150796666Y-91399104D01*
X150796666Y-91399104D02*
X150749047Y-91541961D01*
X150749047Y-91541961D02*
X150653809Y-91637200D01*
X150653809Y-91637200D02*
X150510952Y-91684819D01*
X150510952Y-91684819D02*
X150415714Y-91684819D01*
X151701428Y-91018152D02*
X151701428Y-91684819D01*
X151463333Y-90637200D02*
X151225238Y-91351485D01*
X151225238Y-91351485D02*
X151844285Y-91351485D01*
X153336666Y-89954819D02*
X153336666Y-90669104D01*
X153336666Y-90669104D02*
X153289047Y-90811961D01*
X153289047Y-90811961D02*
X153193809Y-90907200D01*
X153193809Y-90907200D02*
X153050952Y-90954819D01*
X153050952Y-90954819D02*
X152955714Y-90954819D01*
X153717619Y-89954819D02*
X154336666Y-89954819D01*
X154336666Y-89954819D02*
X154003333Y-90335771D01*
X154003333Y-90335771D02*
X154146190Y-90335771D01*
X154146190Y-90335771D02*
X154241428Y-90383390D01*
X154241428Y-90383390D02*
X154289047Y-90431009D01*
X154289047Y-90431009D02*
X154336666Y-90526247D01*
X154336666Y-90526247D02*
X154336666Y-90764342D01*
X154336666Y-90764342D02*
X154289047Y-90859580D01*
X154289047Y-90859580D02*
X154241428Y-90907200D01*
X154241428Y-90907200D02*
X154146190Y-90954819D01*
X154146190Y-90954819D02*
X153860476Y-90954819D01*
X153860476Y-90954819D02*
X153765238Y-90907200D01*
X153765238Y-90907200D02*
X153717619Y-90859580D01*
X127936666Y-73324819D02*
X127936666Y-74039104D01*
X127936666Y-74039104D02*
X127889047Y-74181961D01*
X127889047Y-74181961D02*
X127793809Y-74277200D01*
X127793809Y-74277200D02*
X127650952Y-74324819D01*
X127650952Y-74324819D02*
X127555714Y-74324819D01*
X128365238Y-73420057D02*
X128412857Y-73372438D01*
X128412857Y-73372438D02*
X128508095Y-73324819D01*
X128508095Y-73324819D02*
X128746190Y-73324819D01*
X128746190Y-73324819D02*
X128841428Y-73372438D01*
X128841428Y-73372438D02*
X128889047Y-73420057D01*
X128889047Y-73420057D02*
X128936666Y-73515295D01*
X128936666Y-73515295D02*
X128936666Y-73610533D01*
X128936666Y-73610533D02*
X128889047Y-73753390D01*
X128889047Y-73753390D02*
X128317619Y-74324819D01*
X128317619Y-74324819D02*
X128936666Y-74324819D01*
X138938095Y-75344819D02*
X138938095Y-76154342D01*
X138938095Y-76154342D02*
X138985714Y-76249580D01*
X138985714Y-76249580D02*
X139033333Y-76297200D01*
X139033333Y-76297200D02*
X139128571Y-76344819D01*
X139128571Y-76344819D02*
X139319047Y-76344819D01*
X139319047Y-76344819D02*
X139414285Y-76297200D01*
X139414285Y-76297200D02*
X139461904Y-76249580D01*
X139461904Y-76249580D02*
X139509523Y-76154342D01*
X139509523Y-76154342D02*
X139509523Y-75344819D01*
X140509523Y-76344819D02*
X139938095Y-76344819D01*
X140223809Y-76344819D02*
X140223809Y-75344819D01*
X140223809Y-75344819D02*
X140128571Y-75487676D01*
X140128571Y-75487676D02*
X140033333Y-75582914D01*
X140033333Y-75582914D02*
X139938095Y-75630533D01*
D11*
%TO.C,J4*%
X152460000Y-90230000D02*
X151130000Y-90230000D01*
X152460000Y-88900000D02*
X152460000Y-90230000D01*
X152460000Y-87630000D02*
X152460000Y-74870000D01*
X152460000Y-87630000D02*
X149800000Y-87630000D01*
X152460000Y-74870000D02*
X149800000Y-74870000D01*
X149800000Y-87630000D02*
X149800000Y-74870000D01*
%TO.C,J3*%
X157025000Y-93800000D02*
X157025000Y-96700000D01*
X152220000Y-98605000D02*
X155120000Y-98605000D01*
X152220000Y-91895000D02*
X155120000Y-91895000D01*
X150315000Y-93800000D02*
X150315000Y-96700000D01*
%TO.C,J2*%
X126940000Y-74870000D02*
X128270000Y-74870000D01*
X126940000Y-76200000D02*
X126940000Y-74870000D01*
X126940000Y-77470000D02*
X126940000Y-95310000D01*
X126940000Y-77470000D02*
X129600000Y-77470000D01*
X126940000Y-95310000D02*
X129600000Y-95310000D01*
X129600000Y-77470000D02*
X129600000Y-95310000D01*
%TO.C,U1*%
X131600000Y-76990000D02*
X147800000Y-76990000D01*
X131600000Y-92790000D02*
X131600000Y-93190000D01*
X131600000Y-93190000D02*
X147800000Y-93190000D01*
X147800000Y-76990000D02*
X147800000Y-77390000D01*
X147800000Y-93190000D02*
X147800000Y-92790000D01*
X131100000Y-77190000D02*
X130860000Y-76854000D01*
X131340000Y-76854000D01*
X131100000Y-77190000D01*
G36*
X131100000Y-77190000D02*
G01*
X130860000Y-76854000D01*
X131340000Y-76854000D01*
X131100000Y-77190000D01*
G37*
%TD*%
M02*
