%TF.GenerationSoftware,KiCad,Pcbnew,8.0.6*%
%TF.CreationDate,2024-11-12T13:13:14-05:00*%
%TF.ProjectId,lora_breakout,6c6f7261-5f62-4726-9561-6b6f75742e6b,rev?*%
%TF.SameCoordinates,Original*%
%TF.FileFunction,Drillmap*%
%TF.FilePolarity,Positive*%
%FSLAX45Y45*%
G04 Gerber Fmt 4.5, Leading zero omitted, Abs format (unit mm)*
G04 Created by KiCad (PCBNEW 8.0.6) date 2024-11-12 13:13:14*
%MOMM*%
%LPD*%
G01*
G04 APERTURE LIST*
%ADD10C,0.050000*%
%ADD11C,0.200000*%
%ADD12C,0.100000*%
G04 APERTURE END LIST*
D10*
X12573000Y-7493000D02*
X15367000Y-7493000D01*
X15367000Y-9525000D01*
X12573000Y-9525000D01*
X12573000Y-7493000D01*
D11*
D12*
X12650000Y-7570000D02*
X12750000Y-7670000D01*
X12750000Y-7570000D02*
X12650000Y-7670000D01*
X12650000Y-7824000D02*
X12750000Y-7924000D01*
X12750000Y-7824000D02*
X12650000Y-7924000D01*
X12650000Y-8078000D02*
X12750000Y-8178000D01*
X12750000Y-8078000D02*
X12650000Y-8178000D01*
X12650000Y-8332000D02*
X12750000Y-8432000D01*
X12750000Y-8332000D02*
X12650000Y-8432000D01*
X12650000Y-8586000D02*
X12750000Y-8686000D01*
X12750000Y-8586000D02*
X12650000Y-8686000D01*
X12650000Y-8840000D02*
X12750000Y-8940000D01*
X12750000Y-8840000D02*
X12650000Y-8940000D01*
X12650000Y-9094000D02*
X12750000Y-9194000D01*
X12750000Y-9094000D02*
X12650000Y-9194000D01*
X12650000Y-9348000D02*
X12750000Y-9448000D01*
X12750000Y-9348000D02*
X12650000Y-9448000D01*
X15190000Y-7570000D02*
X15290000Y-7670000D01*
X15290000Y-7570000D02*
X15190000Y-7670000D01*
X15190000Y-7824000D02*
X15290000Y-7924000D01*
X15290000Y-7824000D02*
X15190000Y-7924000D01*
X15190000Y-8078000D02*
X15290000Y-8178000D01*
X15290000Y-8078000D02*
X15190000Y-8178000D01*
X15190000Y-8332000D02*
X15290000Y-8432000D01*
X15290000Y-8332000D02*
X15190000Y-8432000D01*
X15190000Y-8586000D02*
X15290000Y-8686000D01*
X15290000Y-8586000D02*
X15190000Y-8686000D01*
X15190000Y-8840000D02*
X15290000Y-8940000D01*
X15290000Y-8840000D02*
X15190000Y-8940000D01*
X15190000Y-9094000D02*
X15290000Y-9194000D01*
X15290000Y-9094000D02*
X15190000Y-9194000D01*
X15190000Y-9348000D02*
X15290000Y-9448000D01*
X15290000Y-9348000D02*
X15190000Y-9448000D01*
D11*
X12831277Y-9838984D02*
X12831277Y-9638984D01*
X12831277Y-9638984D02*
X12878896Y-9638984D01*
X12878896Y-9638984D02*
X12907467Y-9648508D01*
X12907467Y-9648508D02*
X12926515Y-9667555D01*
X12926515Y-9667555D02*
X12936039Y-9686603D01*
X12936039Y-9686603D02*
X12945562Y-9724698D01*
X12945562Y-9724698D02*
X12945562Y-9753270D01*
X12945562Y-9753270D02*
X12936039Y-9791365D01*
X12936039Y-9791365D02*
X12926515Y-9810412D01*
X12926515Y-9810412D02*
X12907467Y-9829460D01*
X12907467Y-9829460D02*
X12878896Y-9838984D01*
X12878896Y-9838984D02*
X12831277Y-9838984D01*
X13031277Y-9838984D02*
X13031277Y-9705650D01*
X13031277Y-9743746D02*
X13040801Y-9724698D01*
X13040801Y-9724698D02*
X13050324Y-9715174D01*
X13050324Y-9715174D02*
X13069372Y-9705650D01*
X13069372Y-9705650D02*
X13088420Y-9705650D01*
X13155086Y-9838984D02*
X13155086Y-9705650D01*
X13155086Y-9638984D02*
X13145562Y-9648508D01*
X13145562Y-9648508D02*
X13155086Y-9658031D01*
X13155086Y-9658031D02*
X13164610Y-9648508D01*
X13164610Y-9648508D02*
X13155086Y-9638984D01*
X13155086Y-9638984D02*
X13155086Y-9658031D01*
X13278896Y-9838984D02*
X13259848Y-9829460D01*
X13259848Y-9829460D02*
X13250324Y-9810412D01*
X13250324Y-9810412D02*
X13250324Y-9638984D01*
X13383658Y-9838984D02*
X13364610Y-9829460D01*
X13364610Y-9829460D02*
X13355086Y-9810412D01*
X13355086Y-9810412D02*
X13355086Y-9638984D01*
X13612229Y-9838984D02*
X13612229Y-9638984D01*
X13612229Y-9638984D02*
X13678896Y-9781841D01*
X13678896Y-9781841D02*
X13745562Y-9638984D01*
X13745562Y-9638984D02*
X13745562Y-9838984D01*
X13926515Y-9838984D02*
X13926515Y-9734222D01*
X13926515Y-9734222D02*
X13916991Y-9715174D01*
X13916991Y-9715174D02*
X13897943Y-9705650D01*
X13897943Y-9705650D02*
X13859848Y-9705650D01*
X13859848Y-9705650D02*
X13840801Y-9715174D01*
X13926515Y-9829460D02*
X13907467Y-9838984D01*
X13907467Y-9838984D02*
X13859848Y-9838984D01*
X13859848Y-9838984D02*
X13840801Y-9829460D01*
X13840801Y-9829460D02*
X13831277Y-9810412D01*
X13831277Y-9810412D02*
X13831277Y-9791365D01*
X13831277Y-9791365D02*
X13840801Y-9772317D01*
X13840801Y-9772317D02*
X13859848Y-9762793D01*
X13859848Y-9762793D02*
X13907467Y-9762793D01*
X13907467Y-9762793D02*
X13926515Y-9753270D01*
X14021753Y-9705650D02*
X14021753Y-9905650D01*
X14021753Y-9715174D02*
X14040801Y-9705650D01*
X14040801Y-9705650D02*
X14078896Y-9705650D01*
X14078896Y-9705650D02*
X14097943Y-9715174D01*
X14097943Y-9715174D02*
X14107467Y-9724698D01*
X14107467Y-9724698D02*
X14116991Y-9743746D01*
X14116991Y-9743746D02*
X14116991Y-9800889D01*
X14116991Y-9800889D02*
X14107467Y-9819936D01*
X14107467Y-9819936D02*
X14097943Y-9829460D01*
X14097943Y-9829460D02*
X14078896Y-9838984D01*
X14078896Y-9838984D02*
X14040801Y-9838984D01*
X14040801Y-9838984D02*
X14021753Y-9829460D01*
X14202705Y-9819936D02*
X14212229Y-9829460D01*
X14212229Y-9829460D02*
X14202705Y-9838984D01*
X14202705Y-9838984D02*
X14193182Y-9829460D01*
X14193182Y-9829460D02*
X14202705Y-9819936D01*
X14202705Y-9819936D02*
X14202705Y-9838984D01*
X14202705Y-9715174D02*
X14212229Y-9724698D01*
X14212229Y-9724698D02*
X14202705Y-9734222D01*
X14202705Y-9734222D02*
X14193182Y-9724698D01*
X14193182Y-9724698D02*
X14202705Y-9715174D01*
X14202705Y-9715174D02*
X14202705Y-9734222D01*
D12*
X12470500Y-10117500D02*
X12570500Y-10217500D01*
X12570500Y-10117500D02*
X12470500Y-10217500D01*
D11*
X12936039Y-10258984D02*
X12821753Y-10258984D01*
X12878896Y-10258984D02*
X12878896Y-10058984D01*
X12878896Y-10058984D02*
X12859848Y-10087555D01*
X12859848Y-10087555D02*
X12840801Y-10106603D01*
X12840801Y-10106603D02*
X12821753Y-10116127D01*
X13021753Y-10239936D02*
X13031277Y-10249460D01*
X13031277Y-10249460D02*
X13021753Y-10258984D01*
X13021753Y-10258984D02*
X13012229Y-10249460D01*
X13012229Y-10249460D02*
X13021753Y-10239936D01*
X13021753Y-10239936D02*
X13021753Y-10258984D01*
X13155086Y-10058984D02*
X13174134Y-10058984D01*
X13174134Y-10058984D02*
X13193182Y-10068508D01*
X13193182Y-10068508D02*
X13202705Y-10078031D01*
X13202705Y-10078031D02*
X13212229Y-10097079D01*
X13212229Y-10097079D02*
X13221753Y-10135174D01*
X13221753Y-10135174D02*
X13221753Y-10182793D01*
X13221753Y-10182793D02*
X13212229Y-10220889D01*
X13212229Y-10220889D02*
X13202705Y-10239936D01*
X13202705Y-10239936D02*
X13193182Y-10249460D01*
X13193182Y-10249460D02*
X13174134Y-10258984D01*
X13174134Y-10258984D02*
X13155086Y-10258984D01*
X13155086Y-10258984D02*
X13136039Y-10249460D01*
X13136039Y-10249460D02*
X13126515Y-10239936D01*
X13126515Y-10239936D02*
X13116991Y-10220889D01*
X13116991Y-10220889D02*
X13107467Y-10182793D01*
X13107467Y-10182793D02*
X13107467Y-10135174D01*
X13107467Y-10135174D02*
X13116991Y-10097079D01*
X13116991Y-10097079D02*
X13126515Y-10078031D01*
X13126515Y-10078031D02*
X13136039Y-10068508D01*
X13136039Y-10068508D02*
X13155086Y-10058984D01*
X13345562Y-10058984D02*
X13364610Y-10058984D01*
X13364610Y-10058984D02*
X13383658Y-10068508D01*
X13383658Y-10068508D02*
X13393182Y-10078031D01*
X13393182Y-10078031D02*
X13402705Y-10097079D01*
X13402705Y-10097079D02*
X13412229Y-10135174D01*
X13412229Y-10135174D02*
X13412229Y-10182793D01*
X13412229Y-10182793D02*
X13402705Y-10220889D01*
X13402705Y-10220889D02*
X13393182Y-10239936D01*
X13393182Y-10239936D02*
X13383658Y-10249460D01*
X13383658Y-10249460D02*
X13364610Y-10258984D01*
X13364610Y-10258984D02*
X13345562Y-10258984D01*
X13345562Y-10258984D02*
X13326515Y-10249460D01*
X13326515Y-10249460D02*
X13316991Y-10239936D01*
X13316991Y-10239936D02*
X13307467Y-10220889D01*
X13307467Y-10220889D02*
X13297943Y-10182793D01*
X13297943Y-10182793D02*
X13297943Y-10135174D01*
X13297943Y-10135174D02*
X13307467Y-10097079D01*
X13307467Y-10097079D02*
X13316991Y-10078031D01*
X13316991Y-10078031D02*
X13326515Y-10068508D01*
X13326515Y-10068508D02*
X13345562Y-10058984D01*
X13536039Y-10058984D02*
X13555086Y-10058984D01*
X13555086Y-10058984D02*
X13574134Y-10068508D01*
X13574134Y-10068508D02*
X13583658Y-10078031D01*
X13583658Y-10078031D02*
X13593182Y-10097079D01*
X13593182Y-10097079D02*
X13602705Y-10135174D01*
X13602705Y-10135174D02*
X13602705Y-10182793D01*
X13602705Y-10182793D02*
X13593182Y-10220889D01*
X13593182Y-10220889D02*
X13583658Y-10239936D01*
X13583658Y-10239936D02*
X13574134Y-10249460D01*
X13574134Y-10249460D02*
X13555086Y-10258984D01*
X13555086Y-10258984D02*
X13536039Y-10258984D01*
X13536039Y-10258984D02*
X13516991Y-10249460D01*
X13516991Y-10249460D02*
X13507467Y-10239936D01*
X13507467Y-10239936D02*
X13497943Y-10220889D01*
X13497943Y-10220889D02*
X13488420Y-10182793D01*
X13488420Y-10182793D02*
X13488420Y-10135174D01*
X13488420Y-10135174D02*
X13497943Y-10097079D01*
X13497943Y-10097079D02*
X13507467Y-10078031D01*
X13507467Y-10078031D02*
X13516991Y-10068508D01*
X13516991Y-10068508D02*
X13536039Y-10058984D01*
X13688420Y-10258984D02*
X13688420Y-10125650D01*
X13688420Y-10144698D02*
X13697943Y-10135174D01*
X13697943Y-10135174D02*
X13716991Y-10125650D01*
X13716991Y-10125650D02*
X13745563Y-10125650D01*
X13745563Y-10125650D02*
X13764610Y-10135174D01*
X13764610Y-10135174D02*
X13774134Y-10154222D01*
X13774134Y-10154222D02*
X13774134Y-10258984D01*
X13774134Y-10154222D02*
X13783658Y-10135174D01*
X13783658Y-10135174D02*
X13802705Y-10125650D01*
X13802705Y-10125650D02*
X13831277Y-10125650D01*
X13831277Y-10125650D02*
X13850324Y-10135174D01*
X13850324Y-10135174D02*
X13859848Y-10154222D01*
X13859848Y-10154222D02*
X13859848Y-10258984D01*
X13955086Y-10258984D02*
X13955086Y-10125650D01*
X13955086Y-10144698D02*
X13964610Y-10135174D01*
X13964610Y-10135174D02*
X13983658Y-10125650D01*
X13983658Y-10125650D02*
X14012229Y-10125650D01*
X14012229Y-10125650D02*
X14031277Y-10135174D01*
X14031277Y-10135174D02*
X14040801Y-10154222D01*
X14040801Y-10154222D02*
X14040801Y-10258984D01*
X14040801Y-10154222D02*
X14050324Y-10135174D01*
X14050324Y-10135174D02*
X14069372Y-10125650D01*
X14069372Y-10125650D02*
X14097943Y-10125650D01*
X14097943Y-10125650D02*
X14116991Y-10135174D01*
X14116991Y-10135174D02*
X14126515Y-10154222D01*
X14126515Y-10154222D02*
X14126515Y-10258984D01*
X14516991Y-10049460D02*
X14345563Y-10306603D01*
X14774134Y-10058984D02*
X14793182Y-10058984D01*
X14793182Y-10058984D02*
X14812229Y-10068508D01*
X14812229Y-10068508D02*
X14821753Y-10078031D01*
X14821753Y-10078031D02*
X14831277Y-10097079D01*
X14831277Y-10097079D02*
X14840801Y-10135174D01*
X14840801Y-10135174D02*
X14840801Y-10182793D01*
X14840801Y-10182793D02*
X14831277Y-10220889D01*
X14831277Y-10220889D02*
X14821753Y-10239936D01*
X14821753Y-10239936D02*
X14812229Y-10249460D01*
X14812229Y-10249460D02*
X14793182Y-10258984D01*
X14793182Y-10258984D02*
X14774134Y-10258984D01*
X14774134Y-10258984D02*
X14755086Y-10249460D01*
X14755086Y-10249460D02*
X14745563Y-10239936D01*
X14745563Y-10239936D02*
X14736039Y-10220889D01*
X14736039Y-10220889D02*
X14726515Y-10182793D01*
X14726515Y-10182793D02*
X14726515Y-10135174D01*
X14726515Y-10135174D02*
X14736039Y-10097079D01*
X14736039Y-10097079D02*
X14745563Y-10078031D01*
X14745563Y-10078031D02*
X14755086Y-10068508D01*
X14755086Y-10068508D02*
X14774134Y-10058984D01*
X14926515Y-10239936D02*
X14936039Y-10249460D01*
X14936039Y-10249460D02*
X14926515Y-10258984D01*
X14926515Y-10258984D02*
X14916991Y-10249460D01*
X14916991Y-10249460D02*
X14926515Y-10239936D01*
X14926515Y-10239936D02*
X14926515Y-10258984D01*
X15059848Y-10058984D02*
X15078896Y-10058984D01*
X15078896Y-10058984D02*
X15097944Y-10068508D01*
X15097944Y-10068508D02*
X15107467Y-10078031D01*
X15107467Y-10078031D02*
X15116991Y-10097079D01*
X15116991Y-10097079D02*
X15126515Y-10135174D01*
X15126515Y-10135174D02*
X15126515Y-10182793D01*
X15126515Y-10182793D02*
X15116991Y-10220889D01*
X15116991Y-10220889D02*
X15107467Y-10239936D01*
X15107467Y-10239936D02*
X15097944Y-10249460D01*
X15097944Y-10249460D02*
X15078896Y-10258984D01*
X15078896Y-10258984D02*
X15059848Y-10258984D01*
X15059848Y-10258984D02*
X15040801Y-10249460D01*
X15040801Y-10249460D02*
X15031277Y-10239936D01*
X15031277Y-10239936D02*
X15021753Y-10220889D01*
X15021753Y-10220889D02*
X15012229Y-10182793D01*
X15012229Y-10182793D02*
X15012229Y-10135174D01*
X15012229Y-10135174D02*
X15021753Y-10097079D01*
X15021753Y-10097079D02*
X15031277Y-10078031D01*
X15031277Y-10078031D02*
X15040801Y-10068508D01*
X15040801Y-10068508D02*
X15059848Y-10058984D01*
X15193182Y-10058984D02*
X15316991Y-10058984D01*
X15316991Y-10058984D02*
X15250325Y-10135174D01*
X15250325Y-10135174D02*
X15278896Y-10135174D01*
X15278896Y-10135174D02*
X15297944Y-10144698D01*
X15297944Y-10144698D02*
X15307467Y-10154222D01*
X15307467Y-10154222D02*
X15316991Y-10173270D01*
X15316991Y-10173270D02*
X15316991Y-10220889D01*
X15316991Y-10220889D02*
X15307467Y-10239936D01*
X15307467Y-10239936D02*
X15297944Y-10249460D01*
X15297944Y-10249460D02*
X15278896Y-10258984D01*
X15278896Y-10258984D02*
X15221753Y-10258984D01*
X15221753Y-10258984D02*
X15202706Y-10249460D01*
X15202706Y-10249460D02*
X15193182Y-10239936D01*
X15412229Y-10258984D02*
X15450325Y-10258984D01*
X15450325Y-10258984D02*
X15469372Y-10249460D01*
X15469372Y-10249460D02*
X15478896Y-10239936D01*
X15478896Y-10239936D02*
X15497944Y-10211365D01*
X15497944Y-10211365D02*
X15507467Y-10173270D01*
X15507467Y-10173270D02*
X15507467Y-10097079D01*
X15507467Y-10097079D02*
X15497944Y-10078031D01*
X15497944Y-10078031D02*
X15488420Y-10068508D01*
X15488420Y-10068508D02*
X15469372Y-10058984D01*
X15469372Y-10058984D02*
X15431277Y-10058984D01*
X15431277Y-10058984D02*
X15412229Y-10068508D01*
X15412229Y-10068508D02*
X15402706Y-10078031D01*
X15402706Y-10078031D02*
X15393182Y-10097079D01*
X15393182Y-10097079D02*
X15393182Y-10144698D01*
X15393182Y-10144698D02*
X15402706Y-10163746D01*
X15402706Y-10163746D02*
X15412229Y-10173270D01*
X15412229Y-10173270D02*
X15431277Y-10182793D01*
X15431277Y-10182793D02*
X15469372Y-10182793D01*
X15469372Y-10182793D02*
X15488420Y-10173270D01*
X15488420Y-10173270D02*
X15497944Y-10163746D01*
X15497944Y-10163746D02*
X15507467Y-10144698D01*
X15678896Y-10125650D02*
X15678896Y-10258984D01*
X15631277Y-10049460D02*
X15583658Y-10192317D01*
X15583658Y-10192317D02*
X15707467Y-10192317D01*
X15774134Y-10058984D02*
X15774134Y-10097079D01*
X15850325Y-10058984D02*
X15850325Y-10097079D01*
X16145563Y-10335174D02*
X16136039Y-10325650D01*
X16136039Y-10325650D02*
X16116991Y-10297079D01*
X16116991Y-10297079D02*
X16107468Y-10278031D01*
X16107468Y-10278031D02*
X16097944Y-10249460D01*
X16097944Y-10249460D02*
X16088420Y-10201841D01*
X16088420Y-10201841D02*
X16088420Y-10163746D01*
X16088420Y-10163746D02*
X16097944Y-10116127D01*
X16097944Y-10116127D02*
X16107468Y-10087555D01*
X16107468Y-10087555D02*
X16116991Y-10068508D01*
X16116991Y-10068508D02*
X16136039Y-10039936D01*
X16136039Y-10039936D02*
X16145563Y-10030412D01*
X16326515Y-10258984D02*
X16212229Y-10258984D01*
X16269372Y-10258984D02*
X16269372Y-10058984D01*
X16269372Y-10058984D02*
X16250325Y-10087555D01*
X16250325Y-10087555D02*
X16231277Y-10106603D01*
X16231277Y-10106603D02*
X16212229Y-10116127D01*
X16497944Y-10058984D02*
X16459848Y-10058984D01*
X16459848Y-10058984D02*
X16440801Y-10068508D01*
X16440801Y-10068508D02*
X16431277Y-10078031D01*
X16431277Y-10078031D02*
X16412229Y-10106603D01*
X16412229Y-10106603D02*
X16402706Y-10144698D01*
X16402706Y-10144698D02*
X16402706Y-10220889D01*
X16402706Y-10220889D02*
X16412229Y-10239936D01*
X16412229Y-10239936D02*
X16421753Y-10249460D01*
X16421753Y-10249460D02*
X16440801Y-10258984D01*
X16440801Y-10258984D02*
X16478896Y-10258984D01*
X16478896Y-10258984D02*
X16497944Y-10249460D01*
X16497944Y-10249460D02*
X16507468Y-10239936D01*
X16507468Y-10239936D02*
X16516991Y-10220889D01*
X16516991Y-10220889D02*
X16516991Y-10173270D01*
X16516991Y-10173270D02*
X16507468Y-10154222D01*
X16507468Y-10154222D02*
X16497944Y-10144698D01*
X16497944Y-10144698D02*
X16478896Y-10135174D01*
X16478896Y-10135174D02*
X16440801Y-10135174D01*
X16440801Y-10135174D02*
X16421753Y-10144698D01*
X16421753Y-10144698D02*
X16412229Y-10154222D01*
X16412229Y-10154222D02*
X16402706Y-10173270D01*
X16755087Y-10258984D02*
X16755087Y-10058984D01*
X16840801Y-10258984D02*
X16840801Y-10154222D01*
X16840801Y-10154222D02*
X16831277Y-10135174D01*
X16831277Y-10135174D02*
X16812230Y-10125650D01*
X16812230Y-10125650D02*
X16783658Y-10125650D01*
X16783658Y-10125650D02*
X16764610Y-10135174D01*
X16764610Y-10135174D02*
X16755087Y-10144698D01*
X16964611Y-10258984D02*
X16945563Y-10249460D01*
X16945563Y-10249460D02*
X16936039Y-10239936D01*
X16936039Y-10239936D02*
X16926515Y-10220889D01*
X16926515Y-10220889D02*
X16926515Y-10163746D01*
X16926515Y-10163746D02*
X16936039Y-10144698D01*
X16936039Y-10144698D02*
X16945563Y-10135174D01*
X16945563Y-10135174D02*
X16964611Y-10125650D01*
X16964611Y-10125650D02*
X16993182Y-10125650D01*
X16993182Y-10125650D02*
X17012230Y-10135174D01*
X17012230Y-10135174D02*
X17021753Y-10144698D01*
X17021753Y-10144698D02*
X17031277Y-10163746D01*
X17031277Y-10163746D02*
X17031277Y-10220889D01*
X17031277Y-10220889D02*
X17021753Y-10239936D01*
X17021753Y-10239936D02*
X17012230Y-10249460D01*
X17012230Y-10249460D02*
X16993182Y-10258984D01*
X16993182Y-10258984D02*
X16964611Y-10258984D01*
X17145563Y-10258984D02*
X17126515Y-10249460D01*
X17126515Y-10249460D02*
X17116992Y-10230412D01*
X17116992Y-10230412D02*
X17116992Y-10058984D01*
X17297944Y-10249460D02*
X17278896Y-10258984D01*
X17278896Y-10258984D02*
X17240801Y-10258984D01*
X17240801Y-10258984D02*
X17221753Y-10249460D01*
X17221753Y-10249460D02*
X17212230Y-10230412D01*
X17212230Y-10230412D02*
X17212230Y-10154222D01*
X17212230Y-10154222D02*
X17221753Y-10135174D01*
X17221753Y-10135174D02*
X17240801Y-10125650D01*
X17240801Y-10125650D02*
X17278896Y-10125650D01*
X17278896Y-10125650D02*
X17297944Y-10135174D01*
X17297944Y-10135174D02*
X17307468Y-10154222D01*
X17307468Y-10154222D02*
X17307468Y-10173270D01*
X17307468Y-10173270D02*
X17212230Y-10192317D01*
X17383658Y-10249460D02*
X17402706Y-10258984D01*
X17402706Y-10258984D02*
X17440801Y-10258984D01*
X17440801Y-10258984D02*
X17459849Y-10249460D01*
X17459849Y-10249460D02*
X17469373Y-10230412D01*
X17469373Y-10230412D02*
X17469373Y-10220889D01*
X17469373Y-10220889D02*
X17459849Y-10201841D01*
X17459849Y-10201841D02*
X17440801Y-10192317D01*
X17440801Y-10192317D02*
X17412230Y-10192317D01*
X17412230Y-10192317D02*
X17393182Y-10182793D01*
X17393182Y-10182793D02*
X17383658Y-10163746D01*
X17383658Y-10163746D02*
X17383658Y-10154222D01*
X17383658Y-10154222D02*
X17393182Y-10135174D01*
X17393182Y-10135174D02*
X17412230Y-10125650D01*
X17412230Y-10125650D02*
X17440801Y-10125650D01*
X17440801Y-10125650D02*
X17459849Y-10135174D01*
X17536039Y-10335174D02*
X17545563Y-10325650D01*
X17545563Y-10325650D02*
X17564611Y-10297079D01*
X17564611Y-10297079D02*
X17574134Y-10278031D01*
X17574134Y-10278031D02*
X17583658Y-10249460D01*
X17583658Y-10249460D02*
X17593182Y-10201841D01*
X17593182Y-10201841D02*
X17593182Y-10163746D01*
X17593182Y-10163746D02*
X17583658Y-10116127D01*
X17583658Y-10116127D02*
X17574134Y-10087555D01*
X17574134Y-10087555D02*
X17564611Y-10068508D01*
X17564611Y-10068508D02*
X17545563Y-10039936D01*
X17545563Y-10039936D02*
X17536039Y-10030412D01*
M02*
