%TF.GenerationSoftware,KiCad,Pcbnew,8.0.6*%
%TF.CreationDate,2024-11-12T13:13:14-05:00*%
%TF.ProjectId,lora_breakout,6c6f7261-5f62-4726-9561-6b6f75742e6b,rev?*%
%TF.SameCoordinates,Original*%
%TF.FileFunction,Drillmap*%
%TF.FilePolarity,Positive*%
%FSLAX45Y45*%
G04 Gerber Fmt 4.5, Leading zero omitted, Abs format (unit mm)*
G04 Created by KiCad (PCBNEW 8.0.6) date 2024-11-12 13:13:14*
%MOMM*%
%LPD*%
G01*
G04 APERTURE LIST*
%ADD10C,0.050000*%
%ADD11C,0.200000*%
G04 APERTURE END LIST*
D10*
X12573000Y-7493000D02*
X15367000Y-7493000D01*
X15367000Y-9525000D01*
X12573000Y-9525000D01*
X12573000Y-7493000D01*
D11*
X12831277Y-9838984D02*
X12831277Y-9638984D01*
X12831277Y-9638984D02*
X12878896Y-9638984D01*
X12878896Y-9638984D02*
X12907467Y-9648508D01*
X12907467Y-9648508D02*
X12926515Y-9667555D01*
X12926515Y-9667555D02*
X12936039Y-9686603D01*
X12936039Y-9686603D02*
X12945562Y-9724698D01*
X12945562Y-9724698D02*
X12945562Y-9753270D01*
X12945562Y-9753270D02*
X12936039Y-9791365D01*
X12936039Y-9791365D02*
X12926515Y-9810412D01*
X12926515Y-9810412D02*
X12907467Y-9829460D01*
X12907467Y-9829460D02*
X12878896Y-9838984D01*
X12878896Y-9838984D02*
X12831277Y-9838984D01*
X13031277Y-9838984D02*
X13031277Y-9705650D01*
X13031277Y-9743746D02*
X13040801Y-9724698D01*
X13040801Y-9724698D02*
X13050324Y-9715174D01*
X13050324Y-9715174D02*
X13069372Y-9705650D01*
X13069372Y-9705650D02*
X13088420Y-9705650D01*
X13155086Y-9838984D02*
X13155086Y-9705650D01*
X13155086Y-9638984D02*
X13145562Y-9648508D01*
X13145562Y-9648508D02*
X13155086Y-9658031D01*
X13155086Y-9658031D02*
X13164610Y-9648508D01*
X13164610Y-9648508D02*
X13155086Y-9638984D01*
X13155086Y-9638984D02*
X13155086Y-9658031D01*
X13278896Y-9838984D02*
X13259848Y-9829460D01*
X13259848Y-9829460D02*
X13250324Y-9810412D01*
X13250324Y-9810412D02*
X13250324Y-9638984D01*
X13383658Y-9838984D02*
X13364610Y-9829460D01*
X13364610Y-9829460D02*
X13355086Y-9810412D01*
X13355086Y-9810412D02*
X13355086Y-9638984D01*
X13612229Y-9838984D02*
X13612229Y-9638984D01*
X13612229Y-9638984D02*
X13678896Y-9781841D01*
X13678896Y-9781841D02*
X13745562Y-9638984D01*
X13745562Y-9638984D02*
X13745562Y-9838984D01*
X13926515Y-9838984D02*
X13926515Y-9734222D01*
X13926515Y-9734222D02*
X13916991Y-9715174D01*
X13916991Y-9715174D02*
X13897943Y-9705650D01*
X13897943Y-9705650D02*
X13859848Y-9705650D01*
X13859848Y-9705650D02*
X13840801Y-9715174D01*
X13926515Y-9829460D02*
X13907467Y-9838984D01*
X13907467Y-9838984D02*
X13859848Y-9838984D01*
X13859848Y-9838984D02*
X13840801Y-9829460D01*
X13840801Y-9829460D02*
X13831277Y-9810412D01*
X13831277Y-9810412D02*
X13831277Y-9791365D01*
X13831277Y-9791365D02*
X13840801Y-9772317D01*
X13840801Y-9772317D02*
X13859848Y-9762793D01*
X13859848Y-9762793D02*
X13907467Y-9762793D01*
X13907467Y-9762793D02*
X13926515Y-9753270D01*
X14021753Y-9705650D02*
X14021753Y-9905650D01*
X14021753Y-9715174D02*
X14040801Y-9705650D01*
X14040801Y-9705650D02*
X14078896Y-9705650D01*
X14078896Y-9705650D02*
X14097943Y-9715174D01*
X14097943Y-9715174D02*
X14107467Y-9724698D01*
X14107467Y-9724698D02*
X14116991Y-9743746D01*
X14116991Y-9743746D02*
X14116991Y-9800889D01*
X14116991Y-9800889D02*
X14107467Y-9819936D01*
X14107467Y-9819936D02*
X14097943Y-9829460D01*
X14097943Y-9829460D02*
X14078896Y-9838984D01*
X14078896Y-9838984D02*
X14040801Y-9838984D01*
X14040801Y-9838984D02*
X14021753Y-9829460D01*
X14202705Y-9819936D02*
X14212229Y-9829460D01*
X14212229Y-9829460D02*
X14202705Y-9838984D01*
X14202705Y-9838984D02*
X14193182Y-9829460D01*
X14193182Y-9829460D02*
X14202705Y-9819936D01*
X14202705Y-9819936D02*
X14202705Y-9838984D01*
X14202705Y-9715174D02*
X14212229Y-9724698D01*
X14212229Y-9724698D02*
X14202705Y-9734222D01*
X14202705Y-9734222D02*
X14193182Y-9724698D01*
X14193182Y-9724698D02*
X14202705Y-9715174D01*
X14202705Y-9715174D02*
X14202705Y-9734222D01*
M02*
