%TF.GenerationSoftware,KiCad,Pcbnew,8.0.6*%
%TF.CreationDate,2024-11-18T16:26:53-05:00*%
%TF.ProjectId,lora_breakout,6c6f7261-5f62-4726-9561-6b6f75742e6b,rev?*%
%TF.SameCoordinates,Original*%
%TF.FileFunction,Copper,L2,Bot*%
%TF.FilePolarity,Positive*%
%FSLAX46Y46*%
G04 Gerber Fmt 4.6, Leading zero omitted, Abs format (unit mm)*
G04 Created by KiCad (PCBNEW 8.0.6) date 2024-11-18 16:26:53*
%MOMM*%
%LPD*%
G01*
G04 APERTURE LIST*
%ADD10C,0.125000*%
%TA.AperFunction,NonConductor*%
%ADD11C,0.125000*%
%TD*%
%TA.AperFunction,ComponentPad*%
%ADD12R,1.700000X1.700000*%
%TD*%
%TA.AperFunction,ComponentPad*%
%ADD13O,1.700000X1.700000*%
%TD*%
%TA.AperFunction,ComponentPad*%
%ADD14C,2.250000*%
%TD*%
%TA.AperFunction,ComponentPad*%
%ADD15C,2.050000*%
%TD*%
G04 APERTURE END LIST*
D10*
D11*
X132905859Y-91668738D02*
X133001097Y-91621119D01*
X133001097Y-91621119D02*
X133143954Y-91621119D01*
X133143954Y-91621119D02*
X133286811Y-91668738D01*
X133286811Y-91668738D02*
X133382049Y-91763976D01*
X133382049Y-91763976D02*
X133429668Y-91859214D01*
X133429668Y-91859214D02*
X133477287Y-92049690D01*
X133477287Y-92049690D02*
X133477287Y-92192547D01*
X133477287Y-92192547D02*
X133429668Y-92383023D01*
X133429668Y-92383023D02*
X133382049Y-92478261D01*
X133382049Y-92478261D02*
X133286811Y-92573500D01*
X133286811Y-92573500D02*
X133143954Y-92621119D01*
X133143954Y-92621119D02*
X133048716Y-92621119D01*
X133048716Y-92621119D02*
X132905859Y-92573500D01*
X132905859Y-92573500D02*
X132858240Y-92525880D01*
X132858240Y-92525880D02*
X132858240Y-92192547D01*
X132858240Y-92192547D02*
X133048716Y-92192547D01*
X132429668Y-92621119D02*
X132429668Y-91621119D01*
X132429668Y-91621119D02*
X131858240Y-92621119D01*
X131858240Y-92621119D02*
X131858240Y-91621119D01*
X131382049Y-92621119D02*
X131382049Y-91621119D01*
X131382049Y-91621119D02*
X131143954Y-91621119D01*
X131143954Y-91621119D02*
X131001097Y-91668738D01*
X131001097Y-91668738D02*
X130905859Y-91763976D01*
X130905859Y-91763976D02*
X130858240Y-91859214D01*
X130858240Y-91859214D02*
X130810621Y-92049690D01*
X130810621Y-92049690D02*
X130810621Y-92192547D01*
X130810621Y-92192547D02*
X130858240Y-92383023D01*
X130858240Y-92383023D02*
X130905859Y-92478261D01*
X130905859Y-92478261D02*
X131001097Y-92573500D01*
X131001097Y-92573500D02*
X131143954Y-92621119D01*
X131143954Y-92621119D02*
X131382049Y-92621119D01*
D10*
D11*
X133929668Y-90621119D02*
X133929668Y-89621119D01*
X133929668Y-89621119D02*
X133691573Y-89621119D01*
X133691573Y-89621119D02*
X133548716Y-89668738D01*
X133548716Y-89668738D02*
X133453478Y-89763976D01*
X133453478Y-89763976D02*
X133405859Y-89859214D01*
X133405859Y-89859214D02*
X133358240Y-90049690D01*
X133358240Y-90049690D02*
X133358240Y-90192547D01*
X133358240Y-90192547D02*
X133405859Y-90383023D01*
X133405859Y-90383023D02*
X133453478Y-90478261D01*
X133453478Y-90478261D02*
X133548716Y-90573500D01*
X133548716Y-90573500D02*
X133691573Y-90621119D01*
X133691573Y-90621119D02*
X133929668Y-90621119D01*
X132929668Y-90621119D02*
X132929668Y-89621119D01*
X132263002Y-89621119D02*
X132072526Y-89621119D01*
X132072526Y-89621119D02*
X131977288Y-89668738D01*
X131977288Y-89668738D02*
X131882050Y-89763976D01*
X131882050Y-89763976D02*
X131834431Y-89954452D01*
X131834431Y-89954452D02*
X131834431Y-90287785D01*
X131834431Y-90287785D02*
X131882050Y-90478261D01*
X131882050Y-90478261D02*
X131977288Y-90573500D01*
X131977288Y-90573500D02*
X132072526Y-90621119D01*
X132072526Y-90621119D02*
X132263002Y-90621119D01*
X132263002Y-90621119D02*
X132358240Y-90573500D01*
X132358240Y-90573500D02*
X132453478Y-90478261D01*
X132453478Y-90478261D02*
X132501097Y-90287785D01*
X132501097Y-90287785D02*
X132501097Y-89954452D01*
X132501097Y-89954452D02*
X132453478Y-89763976D01*
X132453478Y-89763976D02*
X132358240Y-89668738D01*
X132358240Y-89668738D02*
X132263002Y-89621119D01*
X130929669Y-89621119D02*
X131405859Y-89621119D01*
X131405859Y-89621119D02*
X131453478Y-90097309D01*
X131453478Y-90097309D02*
X131405859Y-90049690D01*
X131405859Y-90049690D02*
X131310621Y-90002071D01*
X131310621Y-90002071D02*
X131072526Y-90002071D01*
X131072526Y-90002071D02*
X130977288Y-90049690D01*
X130977288Y-90049690D02*
X130929669Y-90097309D01*
X130929669Y-90097309D02*
X130882050Y-90192547D01*
X130882050Y-90192547D02*
X130882050Y-90430642D01*
X130882050Y-90430642D02*
X130929669Y-90525880D01*
X130929669Y-90525880D02*
X130977288Y-90573500D01*
X130977288Y-90573500D02*
X131072526Y-90621119D01*
X131072526Y-90621119D02*
X131310621Y-90621119D01*
X131310621Y-90621119D02*
X131405859Y-90573500D01*
X131405859Y-90573500D02*
X131453478Y-90525880D01*
D10*
D11*
X134358240Y-88621119D02*
X134691573Y-88144928D01*
X134929668Y-88621119D02*
X134929668Y-87621119D01*
X134929668Y-87621119D02*
X134548716Y-87621119D01*
X134548716Y-87621119D02*
X134453478Y-87668738D01*
X134453478Y-87668738D02*
X134405859Y-87716357D01*
X134405859Y-87716357D02*
X134358240Y-87811595D01*
X134358240Y-87811595D02*
X134358240Y-87954452D01*
X134358240Y-87954452D02*
X134405859Y-88049690D01*
X134405859Y-88049690D02*
X134453478Y-88097309D01*
X134453478Y-88097309D02*
X134548716Y-88144928D01*
X134548716Y-88144928D02*
X134929668Y-88144928D01*
X133929668Y-88097309D02*
X133596335Y-88097309D01*
X133453478Y-88621119D02*
X133929668Y-88621119D01*
X133929668Y-88621119D02*
X133929668Y-87621119D01*
X133929668Y-87621119D02*
X133453478Y-87621119D01*
X133072525Y-88573500D02*
X132929668Y-88621119D01*
X132929668Y-88621119D02*
X132691573Y-88621119D01*
X132691573Y-88621119D02*
X132596335Y-88573500D01*
X132596335Y-88573500D02*
X132548716Y-88525880D01*
X132548716Y-88525880D02*
X132501097Y-88430642D01*
X132501097Y-88430642D02*
X132501097Y-88335404D01*
X132501097Y-88335404D02*
X132548716Y-88240166D01*
X132548716Y-88240166D02*
X132596335Y-88192547D01*
X132596335Y-88192547D02*
X132691573Y-88144928D01*
X132691573Y-88144928D02*
X132882049Y-88097309D01*
X132882049Y-88097309D02*
X132977287Y-88049690D01*
X132977287Y-88049690D02*
X133024906Y-88002071D01*
X133024906Y-88002071D02*
X133072525Y-87906833D01*
X133072525Y-87906833D02*
X133072525Y-87811595D01*
X133072525Y-87811595D02*
X133024906Y-87716357D01*
X133024906Y-87716357D02*
X132977287Y-87668738D01*
X132977287Y-87668738D02*
X132882049Y-87621119D01*
X132882049Y-87621119D02*
X132643954Y-87621119D01*
X132643954Y-87621119D02*
X132501097Y-87668738D01*
X132072525Y-88097309D02*
X131739192Y-88097309D01*
X131596335Y-88621119D02*
X132072525Y-88621119D01*
X132072525Y-88621119D02*
X132072525Y-87621119D01*
X132072525Y-87621119D02*
X131596335Y-87621119D01*
X131310620Y-87621119D02*
X130739192Y-87621119D01*
X131024906Y-88621119D02*
X131024906Y-87621119D01*
D10*
D11*
X133429668Y-86621119D02*
X133429668Y-85621119D01*
X133429668Y-85621119D02*
X132858240Y-86621119D01*
X132858240Y-86621119D02*
X132858240Y-85621119D01*
X132429668Y-86573500D02*
X132286811Y-86621119D01*
X132286811Y-86621119D02*
X132048716Y-86621119D01*
X132048716Y-86621119D02*
X131953478Y-86573500D01*
X131953478Y-86573500D02*
X131905859Y-86525880D01*
X131905859Y-86525880D02*
X131858240Y-86430642D01*
X131858240Y-86430642D02*
X131858240Y-86335404D01*
X131858240Y-86335404D02*
X131905859Y-86240166D01*
X131905859Y-86240166D02*
X131953478Y-86192547D01*
X131953478Y-86192547D02*
X132048716Y-86144928D01*
X132048716Y-86144928D02*
X132239192Y-86097309D01*
X132239192Y-86097309D02*
X132334430Y-86049690D01*
X132334430Y-86049690D02*
X132382049Y-86002071D01*
X132382049Y-86002071D02*
X132429668Y-85906833D01*
X132429668Y-85906833D02*
X132429668Y-85811595D01*
X132429668Y-85811595D02*
X132382049Y-85716357D01*
X132382049Y-85716357D02*
X132334430Y-85668738D01*
X132334430Y-85668738D02*
X132239192Y-85621119D01*
X132239192Y-85621119D02*
X132001097Y-85621119D01*
X132001097Y-85621119D02*
X131858240Y-85668738D01*
X131477287Y-86573500D02*
X131334430Y-86621119D01*
X131334430Y-86621119D02*
X131096335Y-86621119D01*
X131096335Y-86621119D02*
X131001097Y-86573500D01*
X131001097Y-86573500D02*
X130953478Y-86525880D01*
X130953478Y-86525880D02*
X130905859Y-86430642D01*
X130905859Y-86430642D02*
X130905859Y-86335404D01*
X130905859Y-86335404D02*
X130953478Y-86240166D01*
X130953478Y-86240166D02*
X131001097Y-86192547D01*
X131001097Y-86192547D02*
X131096335Y-86144928D01*
X131096335Y-86144928D02*
X131286811Y-86097309D01*
X131286811Y-86097309D02*
X131382049Y-86049690D01*
X131382049Y-86049690D02*
X131429668Y-86002071D01*
X131429668Y-86002071D02*
X131477287Y-85906833D01*
X131477287Y-85906833D02*
X131477287Y-85811595D01*
X131477287Y-85811595D02*
X131429668Y-85716357D01*
X131429668Y-85716357D02*
X131382049Y-85668738D01*
X131382049Y-85668738D02*
X131286811Y-85621119D01*
X131286811Y-85621119D02*
X131048716Y-85621119D01*
X131048716Y-85621119D02*
X130905859Y-85668738D01*
D10*
D11*
X133477287Y-84573500D02*
X133334430Y-84621119D01*
X133334430Y-84621119D02*
X133096335Y-84621119D01*
X133096335Y-84621119D02*
X133001097Y-84573500D01*
X133001097Y-84573500D02*
X132953478Y-84525880D01*
X132953478Y-84525880D02*
X132905859Y-84430642D01*
X132905859Y-84430642D02*
X132905859Y-84335404D01*
X132905859Y-84335404D02*
X132953478Y-84240166D01*
X132953478Y-84240166D02*
X133001097Y-84192547D01*
X133001097Y-84192547D02*
X133096335Y-84144928D01*
X133096335Y-84144928D02*
X133286811Y-84097309D01*
X133286811Y-84097309D02*
X133382049Y-84049690D01*
X133382049Y-84049690D02*
X133429668Y-84002071D01*
X133429668Y-84002071D02*
X133477287Y-83906833D01*
X133477287Y-83906833D02*
X133477287Y-83811595D01*
X133477287Y-83811595D02*
X133429668Y-83716357D01*
X133429668Y-83716357D02*
X133382049Y-83668738D01*
X133382049Y-83668738D02*
X133286811Y-83621119D01*
X133286811Y-83621119D02*
X133048716Y-83621119D01*
X133048716Y-83621119D02*
X132905859Y-83668738D01*
X131905859Y-84525880D02*
X131953478Y-84573500D01*
X131953478Y-84573500D02*
X132096335Y-84621119D01*
X132096335Y-84621119D02*
X132191573Y-84621119D01*
X132191573Y-84621119D02*
X132334430Y-84573500D01*
X132334430Y-84573500D02*
X132429668Y-84478261D01*
X132429668Y-84478261D02*
X132477287Y-84383023D01*
X132477287Y-84383023D02*
X132524906Y-84192547D01*
X132524906Y-84192547D02*
X132524906Y-84049690D01*
X132524906Y-84049690D02*
X132477287Y-83859214D01*
X132477287Y-83859214D02*
X132429668Y-83763976D01*
X132429668Y-83763976D02*
X132334430Y-83668738D01*
X132334430Y-83668738D02*
X132191573Y-83621119D01*
X132191573Y-83621119D02*
X132096335Y-83621119D01*
X132096335Y-83621119D02*
X131953478Y-83668738D01*
X131953478Y-83668738D02*
X131905859Y-83716357D01*
X131477287Y-84621119D02*
X131477287Y-83621119D01*
X130905859Y-84621119D02*
X131334430Y-84049690D01*
X130905859Y-83621119D02*
X131477287Y-84192547D01*
D10*
D11*
X134179668Y-82621119D02*
X134179668Y-81621119D01*
X134179668Y-81621119D02*
X133846335Y-82335404D01*
X133846335Y-82335404D02*
X133513002Y-81621119D01*
X133513002Y-81621119D02*
X133513002Y-82621119D01*
X132846335Y-81621119D02*
X132655859Y-81621119D01*
X132655859Y-81621119D02*
X132560621Y-81668738D01*
X132560621Y-81668738D02*
X132465383Y-81763976D01*
X132465383Y-81763976D02*
X132417764Y-81954452D01*
X132417764Y-81954452D02*
X132417764Y-82287785D01*
X132417764Y-82287785D02*
X132465383Y-82478261D01*
X132465383Y-82478261D02*
X132560621Y-82573500D01*
X132560621Y-82573500D02*
X132655859Y-82621119D01*
X132655859Y-82621119D02*
X132846335Y-82621119D01*
X132846335Y-82621119D02*
X132941573Y-82573500D01*
X132941573Y-82573500D02*
X133036811Y-82478261D01*
X133036811Y-82478261D02*
X133084430Y-82287785D01*
X133084430Y-82287785D02*
X133084430Y-81954452D01*
X133084430Y-81954452D02*
X133036811Y-81763976D01*
X133036811Y-81763976D02*
X132941573Y-81668738D01*
X132941573Y-81668738D02*
X132846335Y-81621119D01*
X132036811Y-82573500D02*
X131893954Y-82621119D01*
X131893954Y-82621119D02*
X131655859Y-82621119D01*
X131655859Y-82621119D02*
X131560621Y-82573500D01*
X131560621Y-82573500D02*
X131513002Y-82525880D01*
X131513002Y-82525880D02*
X131465383Y-82430642D01*
X131465383Y-82430642D02*
X131465383Y-82335404D01*
X131465383Y-82335404D02*
X131513002Y-82240166D01*
X131513002Y-82240166D02*
X131560621Y-82192547D01*
X131560621Y-82192547D02*
X131655859Y-82144928D01*
X131655859Y-82144928D02*
X131846335Y-82097309D01*
X131846335Y-82097309D02*
X131941573Y-82049690D01*
X131941573Y-82049690D02*
X131989192Y-82002071D01*
X131989192Y-82002071D02*
X132036811Y-81906833D01*
X132036811Y-81906833D02*
X132036811Y-81811595D01*
X132036811Y-81811595D02*
X131989192Y-81716357D01*
X131989192Y-81716357D02*
X131941573Y-81668738D01*
X131941573Y-81668738D02*
X131846335Y-81621119D01*
X131846335Y-81621119D02*
X131608240Y-81621119D01*
X131608240Y-81621119D02*
X131465383Y-81668738D01*
X131036811Y-82621119D02*
X131036811Y-81621119D01*
D10*
D11*
X134179668Y-80621119D02*
X134179668Y-79621119D01*
X134179668Y-79621119D02*
X133846335Y-80335404D01*
X133846335Y-80335404D02*
X133513002Y-79621119D01*
X133513002Y-79621119D02*
X133513002Y-80621119D01*
X133036811Y-80621119D02*
X133036811Y-79621119D01*
X132608240Y-80573500D02*
X132465383Y-80621119D01*
X132465383Y-80621119D02*
X132227288Y-80621119D01*
X132227288Y-80621119D02*
X132132050Y-80573500D01*
X132132050Y-80573500D02*
X132084431Y-80525880D01*
X132084431Y-80525880D02*
X132036812Y-80430642D01*
X132036812Y-80430642D02*
X132036812Y-80335404D01*
X132036812Y-80335404D02*
X132084431Y-80240166D01*
X132084431Y-80240166D02*
X132132050Y-80192547D01*
X132132050Y-80192547D02*
X132227288Y-80144928D01*
X132227288Y-80144928D02*
X132417764Y-80097309D01*
X132417764Y-80097309D02*
X132513002Y-80049690D01*
X132513002Y-80049690D02*
X132560621Y-80002071D01*
X132560621Y-80002071D02*
X132608240Y-79906833D01*
X132608240Y-79906833D02*
X132608240Y-79811595D01*
X132608240Y-79811595D02*
X132560621Y-79716357D01*
X132560621Y-79716357D02*
X132513002Y-79668738D01*
X132513002Y-79668738D02*
X132417764Y-79621119D01*
X132417764Y-79621119D02*
X132179669Y-79621119D01*
X132179669Y-79621119D02*
X132036812Y-79668738D01*
X131417764Y-79621119D02*
X131227288Y-79621119D01*
X131227288Y-79621119D02*
X131132050Y-79668738D01*
X131132050Y-79668738D02*
X131036812Y-79763976D01*
X131036812Y-79763976D02*
X130989193Y-79954452D01*
X130989193Y-79954452D02*
X130989193Y-80287785D01*
X130989193Y-80287785D02*
X131036812Y-80478261D01*
X131036812Y-80478261D02*
X131132050Y-80573500D01*
X131132050Y-80573500D02*
X131227288Y-80621119D01*
X131227288Y-80621119D02*
X131417764Y-80621119D01*
X131417764Y-80621119D02*
X131513002Y-80573500D01*
X131513002Y-80573500D02*
X131608240Y-80478261D01*
X131608240Y-80478261D02*
X131655859Y-80287785D01*
X131655859Y-80287785D02*
X131655859Y-79954452D01*
X131655859Y-79954452D02*
X131608240Y-79763976D01*
X131608240Y-79763976D02*
X131513002Y-79668738D01*
X131513002Y-79668738D02*
X131417764Y-79621119D01*
D10*
D11*
X132905859Y-77668738D02*
X133001097Y-77621119D01*
X133001097Y-77621119D02*
X133143954Y-77621119D01*
X133143954Y-77621119D02*
X133286811Y-77668738D01*
X133286811Y-77668738D02*
X133382049Y-77763976D01*
X133382049Y-77763976D02*
X133429668Y-77859214D01*
X133429668Y-77859214D02*
X133477287Y-78049690D01*
X133477287Y-78049690D02*
X133477287Y-78192547D01*
X133477287Y-78192547D02*
X133429668Y-78383023D01*
X133429668Y-78383023D02*
X133382049Y-78478261D01*
X133382049Y-78478261D02*
X133286811Y-78573500D01*
X133286811Y-78573500D02*
X133143954Y-78621119D01*
X133143954Y-78621119D02*
X133048716Y-78621119D01*
X133048716Y-78621119D02*
X132905859Y-78573500D01*
X132905859Y-78573500D02*
X132858240Y-78525880D01*
X132858240Y-78525880D02*
X132858240Y-78192547D01*
X132858240Y-78192547D02*
X133048716Y-78192547D01*
X132429668Y-78621119D02*
X132429668Y-77621119D01*
X132429668Y-77621119D02*
X131858240Y-78621119D01*
X131858240Y-78621119D02*
X131858240Y-77621119D01*
X131382049Y-78621119D02*
X131382049Y-77621119D01*
X131382049Y-77621119D02*
X131143954Y-77621119D01*
X131143954Y-77621119D02*
X131001097Y-77668738D01*
X131001097Y-77668738D02*
X130905859Y-77763976D01*
X130905859Y-77763976D02*
X130858240Y-77859214D01*
X130858240Y-77859214D02*
X130810621Y-78049690D01*
X130810621Y-78049690D02*
X130810621Y-78192547D01*
X130810621Y-78192547D02*
X130858240Y-78383023D01*
X130858240Y-78383023D02*
X130905859Y-78478261D01*
X130905859Y-78478261D02*
X131001097Y-78573500D01*
X131001097Y-78573500D02*
X131143954Y-78621119D01*
X131143954Y-78621119D02*
X131382049Y-78621119D01*
D10*
D11*
X148264668Y-78621119D02*
X148264668Y-77621119D01*
X148264668Y-77621119D02*
X148026573Y-77621119D01*
X148026573Y-77621119D02*
X147883716Y-77668738D01*
X147883716Y-77668738D02*
X147788478Y-77763976D01*
X147788478Y-77763976D02*
X147740859Y-77859214D01*
X147740859Y-77859214D02*
X147693240Y-78049690D01*
X147693240Y-78049690D02*
X147693240Y-78192547D01*
X147693240Y-78192547D02*
X147740859Y-78383023D01*
X147740859Y-78383023D02*
X147788478Y-78478261D01*
X147788478Y-78478261D02*
X147883716Y-78573500D01*
X147883716Y-78573500D02*
X148026573Y-78621119D01*
X148026573Y-78621119D02*
X148264668Y-78621119D01*
X147264668Y-78621119D02*
X147264668Y-77621119D01*
X146598002Y-77621119D02*
X146407526Y-77621119D01*
X146407526Y-77621119D02*
X146312288Y-77668738D01*
X146312288Y-77668738D02*
X146217050Y-77763976D01*
X146217050Y-77763976D02*
X146169431Y-77954452D01*
X146169431Y-77954452D02*
X146169431Y-78287785D01*
X146169431Y-78287785D02*
X146217050Y-78478261D01*
X146217050Y-78478261D02*
X146312288Y-78573500D01*
X146312288Y-78573500D02*
X146407526Y-78621119D01*
X146407526Y-78621119D02*
X146598002Y-78621119D01*
X146598002Y-78621119D02*
X146693240Y-78573500D01*
X146693240Y-78573500D02*
X146788478Y-78478261D01*
X146788478Y-78478261D02*
X146836097Y-78287785D01*
X146836097Y-78287785D02*
X146836097Y-77954452D01*
X146836097Y-77954452D02*
X146788478Y-77763976D01*
X146788478Y-77763976D02*
X146693240Y-77668738D01*
X146693240Y-77668738D02*
X146598002Y-77621119D01*
X145788478Y-77716357D02*
X145740859Y-77668738D01*
X145740859Y-77668738D02*
X145645621Y-77621119D01*
X145645621Y-77621119D02*
X145407526Y-77621119D01*
X145407526Y-77621119D02*
X145312288Y-77668738D01*
X145312288Y-77668738D02*
X145264669Y-77716357D01*
X145264669Y-77716357D02*
X145217050Y-77811595D01*
X145217050Y-77811595D02*
X145217050Y-77906833D01*
X145217050Y-77906833D02*
X145264669Y-78049690D01*
X145264669Y-78049690D02*
X145836097Y-78621119D01*
X145836097Y-78621119D02*
X145217050Y-78621119D01*
D10*
D11*
X148264668Y-80621119D02*
X148264668Y-79621119D01*
X148264668Y-79621119D02*
X148026573Y-79621119D01*
X148026573Y-79621119D02*
X147883716Y-79668738D01*
X147883716Y-79668738D02*
X147788478Y-79763976D01*
X147788478Y-79763976D02*
X147740859Y-79859214D01*
X147740859Y-79859214D02*
X147693240Y-80049690D01*
X147693240Y-80049690D02*
X147693240Y-80192547D01*
X147693240Y-80192547D02*
X147740859Y-80383023D01*
X147740859Y-80383023D02*
X147788478Y-80478261D01*
X147788478Y-80478261D02*
X147883716Y-80573500D01*
X147883716Y-80573500D02*
X148026573Y-80621119D01*
X148026573Y-80621119D02*
X148264668Y-80621119D01*
X147264668Y-80621119D02*
X147264668Y-79621119D01*
X146598002Y-79621119D02*
X146407526Y-79621119D01*
X146407526Y-79621119D02*
X146312288Y-79668738D01*
X146312288Y-79668738D02*
X146217050Y-79763976D01*
X146217050Y-79763976D02*
X146169431Y-79954452D01*
X146169431Y-79954452D02*
X146169431Y-80287785D01*
X146169431Y-80287785D02*
X146217050Y-80478261D01*
X146217050Y-80478261D02*
X146312288Y-80573500D01*
X146312288Y-80573500D02*
X146407526Y-80621119D01*
X146407526Y-80621119D02*
X146598002Y-80621119D01*
X146598002Y-80621119D02*
X146693240Y-80573500D01*
X146693240Y-80573500D02*
X146788478Y-80478261D01*
X146788478Y-80478261D02*
X146836097Y-80287785D01*
X146836097Y-80287785D02*
X146836097Y-79954452D01*
X146836097Y-79954452D02*
X146788478Y-79763976D01*
X146788478Y-79763976D02*
X146693240Y-79668738D01*
X146693240Y-79668738D02*
X146598002Y-79621119D01*
X145217050Y-80621119D02*
X145788478Y-80621119D01*
X145502764Y-80621119D02*
X145502764Y-79621119D01*
X145502764Y-79621119D02*
X145598002Y-79763976D01*
X145598002Y-79763976D02*
X145693240Y-79859214D01*
X145693240Y-79859214D02*
X145788478Y-79906833D01*
D10*
D11*
X148264668Y-82621119D02*
X148264668Y-81621119D01*
X148264668Y-81621119D02*
X148026573Y-81621119D01*
X148026573Y-81621119D02*
X147883716Y-81668738D01*
X147883716Y-81668738D02*
X147788478Y-81763976D01*
X147788478Y-81763976D02*
X147740859Y-81859214D01*
X147740859Y-81859214D02*
X147693240Y-82049690D01*
X147693240Y-82049690D02*
X147693240Y-82192547D01*
X147693240Y-82192547D02*
X147740859Y-82383023D01*
X147740859Y-82383023D02*
X147788478Y-82478261D01*
X147788478Y-82478261D02*
X147883716Y-82573500D01*
X147883716Y-82573500D02*
X148026573Y-82621119D01*
X148026573Y-82621119D02*
X148264668Y-82621119D01*
X147264668Y-82621119D02*
X147264668Y-81621119D01*
X146598002Y-81621119D02*
X146407526Y-81621119D01*
X146407526Y-81621119D02*
X146312288Y-81668738D01*
X146312288Y-81668738D02*
X146217050Y-81763976D01*
X146217050Y-81763976D02*
X146169431Y-81954452D01*
X146169431Y-81954452D02*
X146169431Y-82287785D01*
X146169431Y-82287785D02*
X146217050Y-82478261D01*
X146217050Y-82478261D02*
X146312288Y-82573500D01*
X146312288Y-82573500D02*
X146407526Y-82621119D01*
X146407526Y-82621119D02*
X146598002Y-82621119D01*
X146598002Y-82621119D02*
X146693240Y-82573500D01*
X146693240Y-82573500D02*
X146788478Y-82478261D01*
X146788478Y-82478261D02*
X146836097Y-82287785D01*
X146836097Y-82287785D02*
X146836097Y-81954452D01*
X146836097Y-81954452D02*
X146788478Y-81763976D01*
X146788478Y-81763976D02*
X146693240Y-81668738D01*
X146693240Y-81668738D02*
X146598002Y-81621119D01*
X145550383Y-81621119D02*
X145455145Y-81621119D01*
X145455145Y-81621119D02*
X145359907Y-81668738D01*
X145359907Y-81668738D02*
X145312288Y-81716357D01*
X145312288Y-81716357D02*
X145264669Y-81811595D01*
X145264669Y-81811595D02*
X145217050Y-82002071D01*
X145217050Y-82002071D02*
X145217050Y-82240166D01*
X145217050Y-82240166D02*
X145264669Y-82430642D01*
X145264669Y-82430642D02*
X145312288Y-82525880D01*
X145312288Y-82525880D02*
X145359907Y-82573500D01*
X145359907Y-82573500D02*
X145455145Y-82621119D01*
X145455145Y-82621119D02*
X145550383Y-82621119D01*
X145550383Y-82621119D02*
X145645621Y-82573500D01*
X145645621Y-82573500D02*
X145693240Y-82525880D01*
X145693240Y-82525880D02*
X145740859Y-82430642D01*
X145740859Y-82430642D02*
X145788478Y-82240166D01*
X145788478Y-82240166D02*
X145788478Y-82002071D01*
X145788478Y-82002071D02*
X145740859Y-81811595D01*
X145740859Y-81811595D02*
X145693240Y-81716357D01*
X145693240Y-81716357D02*
X145645621Y-81668738D01*
X145645621Y-81668738D02*
X145550383Y-81621119D01*
D10*
D11*
X148359906Y-83621119D02*
X147740859Y-83621119D01*
X147740859Y-83621119D02*
X148074192Y-84002071D01*
X148074192Y-84002071D02*
X147931335Y-84002071D01*
X147931335Y-84002071D02*
X147836097Y-84049690D01*
X147836097Y-84049690D02*
X147788478Y-84097309D01*
X147788478Y-84097309D02*
X147740859Y-84192547D01*
X147740859Y-84192547D02*
X147740859Y-84430642D01*
X147740859Y-84430642D02*
X147788478Y-84525880D01*
X147788478Y-84525880D02*
X147836097Y-84573500D01*
X147836097Y-84573500D02*
X147931335Y-84621119D01*
X147931335Y-84621119D02*
X148217049Y-84621119D01*
X148217049Y-84621119D02*
X148312287Y-84573500D01*
X148312287Y-84573500D02*
X148359906Y-84525880D01*
X147312287Y-84525880D02*
X147264668Y-84573500D01*
X147264668Y-84573500D02*
X147312287Y-84621119D01*
X147312287Y-84621119D02*
X147359906Y-84573500D01*
X147359906Y-84573500D02*
X147312287Y-84525880D01*
X147312287Y-84525880D02*
X147312287Y-84621119D01*
X146931335Y-83621119D02*
X146312288Y-83621119D01*
X146312288Y-83621119D02*
X146645621Y-84002071D01*
X146645621Y-84002071D02*
X146502764Y-84002071D01*
X146502764Y-84002071D02*
X146407526Y-84049690D01*
X146407526Y-84049690D02*
X146359907Y-84097309D01*
X146359907Y-84097309D02*
X146312288Y-84192547D01*
X146312288Y-84192547D02*
X146312288Y-84430642D01*
X146312288Y-84430642D02*
X146359907Y-84525880D01*
X146359907Y-84525880D02*
X146407526Y-84573500D01*
X146407526Y-84573500D02*
X146502764Y-84621119D01*
X146502764Y-84621119D02*
X146788478Y-84621119D01*
X146788478Y-84621119D02*
X146883716Y-84573500D01*
X146883716Y-84573500D02*
X146931335Y-84525880D01*
X146026573Y-83621119D02*
X145693240Y-84621119D01*
X145693240Y-84621119D02*
X145359907Y-83621119D01*
D10*
D11*
X148179668Y-86621119D02*
X148179668Y-85621119D01*
X148179668Y-85621119D02*
X147941573Y-85621119D01*
X147941573Y-85621119D02*
X147798716Y-85668738D01*
X147798716Y-85668738D02*
X147703478Y-85763976D01*
X147703478Y-85763976D02*
X147655859Y-85859214D01*
X147655859Y-85859214D02*
X147608240Y-86049690D01*
X147608240Y-86049690D02*
X147608240Y-86192547D01*
X147608240Y-86192547D02*
X147655859Y-86383023D01*
X147655859Y-86383023D02*
X147703478Y-86478261D01*
X147703478Y-86478261D02*
X147798716Y-86573500D01*
X147798716Y-86573500D02*
X147941573Y-86621119D01*
X147941573Y-86621119D02*
X148179668Y-86621119D01*
X147179668Y-86621119D02*
X147179668Y-85621119D01*
X146513002Y-85621119D02*
X146322526Y-85621119D01*
X146322526Y-85621119D02*
X146227288Y-85668738D01*
X146227288Y-85668738D02*
X146132050Y-85763976D01*
X146132050Y-85763976D02*
X146084431Y-85954452D01*
X146084431Y-85954452D02*
X146084431Y-86287785D01*
X146084431Y-86287785D02*
X146132050Y-86478261D01*
X146132050Y-86478261D02*
X146227288Y-86573500D01*
X146227288Y-86573500D02*
X146322526Y-86621119D01*
X146322526Y-86621119D02*
X146513002Y-86621119D01*
X146513002Y-86621119D02*
X146608240Y-86573500D01*
X146608240Y-86573500D02*
X146703478Y-86478261D01*
X146703478Y-86478261D02*
X146751097Y-86287785D01*
X146751097Y-86287785D02*
X146751097Y-85954452D01*
X146751097Y-85954452D02*
X146703478Y-85763976D01*
X146703478Y-85763976D02*
X146608240Y-85668738D01*
X146608240Y-85668738D02*
X146513002Y-85621119D01*
X145227288Y-85954452D02*
X145227288Y-86621119D01*
X145465383Y-85573500D02*
X145703478Y-86287785D01*
X145703478Y-86287785D02*
X145084431Y-86287785D01*
D10*
D11*
X148179668Y-88621119D02*
X148179668Y-87621119D01*
X148179668Y-87621119D02*
X147941573Y-87621119D01*
X147941573Y-87621119D02*
X147798716Y-87668738D01*
X147798716Y-87668738D02*
X147703478Y-87763976D01*
X147703478Y-87763976D02*
X147655859Y-87859214D01*
X147655859Y-87859214D02*
X147608240Y-88049690D01*
X147608240Y-88049690D02*
X147608240Y-88192547D01*
X147608240Y-88192547D02*
X147655859Y-88383023D01*
X147655859Y-88383023D02*
X147703478Y-88478261D01*
X147703478Y-88478261D02*
X147798716Y-88573500D01*
X147798716Y-88573500D02*
X147941573Y-88621119D01*
X147941573Y-88621119D02*
X148179668Y-88621119D01*
X147179668Y-88621119D02*
X147179668Y-87621119D01*
X146513002Y-87621119D02*
X146322526Y-87621119D01*
X146322526Y-87621119D02*
X146227288Y-87668738D01*
X146227288Y-87668738D02*
X146132050Y-87763976D01*
X146132050Y-87763976D02*
X146084431Y-87954452D01*
X146084431Y-87954452D02*
X146084431Y-88287785D01*
X146084431Y-88287785D02*
X146132050Y-88478261D01*
X146132050Y-88478261D02*
X146227288Y-88573500D01*
X146227288Y-88573500D02*
X146322526Y-88621119D01*
X146322526Y-88621119D02*
X146513002Y-88621119D01*
X146513002Y-88621119D02*
X146608240Y-88573500D01*
X146608240Y-88573500D02*
X146703478Y-88478261D01*
X146703478Y-88478261D02*
X146751097Y-88287785D01*
X146751097Y-88287785D02*
X146751097Y-87954452D01*
X146751097Y-87954452D02*
X146703478Y-87763976D01*
X146703478Y-87763976D02*
X146608240Y-87668738D01*
X146608240Y-87668738D02*
X146513002Y-87621119D01*
X145751097Y-87621119D02*
X145132050Y-87621119D01*
X145132050Y-87621119D02*
X145465383Y-88002071D01*
X145465383Y-88002071D02*
X145322526Y-88002071D01*
X145322526Y-88002071D02*
X145227288Y-88049690D01*
X145227288Y-88049690D02*
X145179669Y-88097309D01*
X145179669Y-88097309D02*
X145132050Y-88192547D01*
X145132050Y-88192547D02*
X145132050Y-88430642D01*
X145132050Y-88430642D02*
X145179669Y-88525880D01*
X145179669Y-88525880D02*
X145227288Y-88573500D01*
X145227288Y-88573500D02*
X145322526Y-88621119D01*
X145322526Y-88621119D02*
X145608240Y-88621119D01*
X145608240Y-88621119D02*
X145703478Y-88573500D01*
X145703478Y-88573500D02*
X145751097Y-88525880D01*
D10*
D11*
X147655859Y-89668738D02*
X147751097Y-89621119D01*
X147751097Y-89621119D02*
X147893954Y-89621119D01*
X147893954Y-89621119D02*
X148036811Y-89668738D01*
X148036811Y-89668738D02*
X148132049Y-89763976D01*
X148132049Y-89763976D02*
X148179668Y-89859214D01*
X148179668Y-89859214D02*
X148227287Y-90049690D01*
X148227287Y-90049690D02*
X148227287Y-90192547D01*
X148227287Y-90192547D02*
X148179668Y-90383023D01*
X148179668Y-90383023D02*
X148132049Y-90478261D01*
X148132049Y-90478261D02*
X148036811Y-90573500D01*
X148036811Y-90573500D02*
X147893954Y-90621119D01*
X147893954Y-90621119D02*
X147798716Y-90621119D01*
X147798716Y-90621119D02*
X147655859Y-90573500D01*
X147655859Y-90573500D02*
X147608240Y-90525880D01*
X147608240Y-90525880D02*
X147608240Y-90192547D01*
X147608240Y-90192547D02*
X147798716Y-90192547D01*
X147179668Y-90621119D02*
X147179668Y-89621119D01*
X147179668Y-89621119D02*
X146608240Y-90621119D01*
X146608240Y-90621119D02*
X146608240Y-89621119D01*
X146132049Y-90621119D02*
X146132049Y-89621119D01*
X146132049Y-89621119D02*
X145893954Y-89621119D01*
X145893954Y-89621119D02*
X145751097Y-89668738D01*
X145751097Y-89668738D02*
X145655859Y-89763976D01*
X145655859Y-89763976D02*
X145608240Y-89859214D01*
X145608240Y-89859214D02*
X145560621Y-90049690D01*
X145560621Y-90049690D02*
X145560621Y-90192547D01*
X145560621Y-90192547D02*
X145608240Y-90383023D01*
X145608240Y-90383023D02*
X145655859Y-90478261D01*
X145655859Y-90478261D02*
X145751097Y-90573500D01*
X145751097Y-90573500D02*
X145893954Y-90621119D01*
X145893954Y-90621119D02*
X146132049Y-90621119D01*
D10*
D11*
X148062287Y-92295404D02*
X147586097Y-92295404D01*
X148157525Y-92581119D02*
X147824192Y-91581119D01*
X147824192Y-91581119D02*
X147490859Y-92581119D01*
X147157525Y-92581119D02*
X147157525Y-91581119D01*
X147157525Y-91581119D02*
X146586097Y-92581119D01*
X146586097Y-92581119D02*
X146586097Y-91581119D01*
X146252763Y-91581119D02*
X145681335Y-91581119D01*
X145967049Y-92581119D02*
X145967049Y-91581119D01*
D12*
%TO.P,J4,1,Pin_1*%
%TO.N,Net-(J4-Pin_1)*%
X151130000Y-88900000D03*
D13*
%TO.P,J4,2,Pin_2*%
%TO.N,Net-(J4-Pin_2)*%
X151130000Y-86360000D03*
%TO.P,J4,3,Pin_3*%
%TO.N,Net-(J4-Pin_3)*%
X151130000Y-83820000D03*
%TO.P,J4,4,Pin_4*%
%TO.N,Net-(J4-Pin_4)*%
X151130000Y-81280000D03*
%TO.P,J4,5,Pin_5*%
%TO.N,Net-(J4-Pin_5)*%
X151130000Y-78740000D03*
%TO.P,J4,6,Pin_6*%
%TO.N,Net-(J4-Pin_6)*%
X151130000Y-76200000D03*
%TD*%
D14*
%TO.P,J3,2,Ext*%
%TO.N,Net-(J3-Ext)*%
X156210000Y-97790000D03*
X156210000Y-92710000D03*
X151130000Y-97790000D03*
X151130000Y-92710000D03*
D15*
%TO.P,J3,1,In*%
%TO.N,Net-(J3-In)*%
X153670000Y-95250000D03*
%TD*%
D12*
%TO.P,J2,1,Pin_1*%
%TO.N,Net-(J2-Pin_1)*%
X128270000Y-76200000D03*
D13*
%TO.P,J2,2,Pin_2*%
%TO.N,Net-(J2-Pin_2)*%
X128270000Y-78740000D03*
%TO.P,J2,3,Pin_3*%
%TO.N,Net-(J2-Pin_3)*%
X128270000Y-81280000D03*
%TO.P,J2,4,Pin_4*%
%TO.N,Net-(J2-Pin_4)*%
X128270000Y-83820000D03*
%TO.P,J2,5,Pin_5*%
%TO.N,Net-(J2-Pin_5)*%
X128270000Y-86360000D03*
%TO.P,J2,6,Pin_6*%
%TO.N,Net-(J2-Pin_6)*%
X128270000Y-88900000D03*
%TO.P,J2,7,Pin_7*%
%TO.N,Net-(J2-Pin_7)*%
X128270000Y-91440000D03*
%TO.P,J2,8,Pin_8*%
%TO.N,Net-(J2-Pin_8)*%
X128270000Y-93980000D03*
%TD*%
M02*
